<svg xmlns="http://www.w3.org/2000/svg" fill="none" viewBox="75 220.29 650 86.9"><path d="M498.8 302.831c-1.96 1.4-4.41 2.5-7.32 3.24-2.91.74-5.89 1.12-9 1.12-7.49 0-13.31-1.68-17.44-5.05-4.13-3.37-6.19-8.18-6.19-14.48v-31.1c0-1.25.03-2.24-2.24-2.24h-10.04v-9.3h10.04c2.24 0 2.24-1.02 2.24-2.24v-22.48h13.48v22.46c0 1.25.13 2.24 2.24 2.24h18.76v9.3h-18.76c-2.27 0-2.24 1.02-2.24 2.24v30.61c0 3.36 1.02 5.96 3.03 7.77 2.01 1.81 4.89 2.7 8.64 2.7 4.13 0 7.65-.97 10.55-2.93l4.23 8.13h.02v.01zM572.75 279.039h-55.34c-2.8 0-6.25-.15-3.44 5.45 1.5 3.03 3.8 5.63 6.96 7.77 4.92 3.34 11.04 5 18.35 5 8.9 0 16.06-2.52 21.51-7.52l7.44 7.29c-3.36 3.29-7.57 5.81-12.59 7.52-5.02 1.73-10.6 2.6-16.8 2.6-7.88 0-14.86-1.35-20.95-4.05-6.09-2.7-10.81-6.5-14.12-11.34-3.34-4.87-5-10.35-5-16.47 0-6.12 1.63-11.5 4.84-16.36 3.24-4.87 7.67-8.64 13.36-11.34 5.66-2.7 12.06-4.05 19.19-4.05 7.13 0 13.46 1.35 19.04 4.05 5.58 2.7 9.94 6.5 13.08 11.34 3.14 4.87 4.72 10.43 4.72 16.72.03.84-.05 1.96-.25 3.39zm-52.79-21.08c-2.09 1.58-3.77 3.42-5.05 5.45-2.01 3.26-2.93 7.47 4.28 7.47h36.63c2.27 0 5.17 0 3.14-4.38-1.48-3.21-3.47-6.14-6.53-8.49-4.36-3.34-9.76-5-16.24-5-6.45.03-11.88 1.66-16.24 4.95M597.06 303.032c-5.96-2.75-10.6-6.53-13.99-11.34-3.36-4.82-5.05-10.3-5.05-16.42 0-6.12 1.68-11.6 5.05-16.42 3.36-4.82 8.03-8.59 13.99-11.29 5.94-2.7 12.72-4.05 20.32-4.05 6.75 0 12.77 1.15 18.07 3.42 5.3 2.27 9.41 5.58 12.29 9.89l-10.25 5.53c-2.35-2.98-5.25-5.23-8.72-6.7-3.47-1.48-7.32-2.24-11.52-2.24-4.87 0-9.251.92-13.151 2.7-3.87 1.81-6.93 4.38-9.13 7.72-2.22 3.34-3.31 7.16-3.31 11.47 0 4.31 1.1 8.26 3.31 11.6 2.19 3.34 5.25 5.91 9.13 7.7 3.9 1.81 8.261 2.7 13.151 2.7 4.21 0 8.05-.74 11.52-2.24 3.47-1.48 6.37-3.72 8.72-6.7l10.25 5.4c-2.91 4.31-7.01 7.62-12.29 9.94-5.3 2.32-11.32 3.47-18.07 3.47-7.6 0-14.38-1.38-20.32-4.13M716.66 249.679c5.58 4.59 8.34 11.32 8.34 20.19v35.89h-13.46v-34.62c0-6.04-1.73-10.58-5.2-13.64-3.47-3.06-8.44-4.59-14.91-4.59-7.32 0-13.08 1.78-17.28 5.35-4.21 3.57-6.32 8.69-6.32 15.35v32.12h-13.48v-85.44h13.48v26.82c.05 2.83.61 3.7 2.35 2.32 3.03-2.4 5.91-3.47 8.67-4.46 4.54-1.66 9.66-2.17 15.27-2.17 9.48 0 17 2.29 22.56 6.88M75 305.728v-11.7l33.7-29.39c7.6-5.99 2.75-6.17-2.32-6.17h-29.7v-13.48h65.59v11.7l-33.95 29.39c-8.85 6.98-2.27 6.02 2.29 6.17h32.7v13.48H75zM187.129 307.178c-8.03 0-15.17-1.38-21.46-4.1-6.42-2.8-11.45-6.68-15.06-11.62-3.39-4.64-5.17-10.22-5.17-15.96s1.84-11.45 5.48-16.24c3.65-4.82 8.62-8.62 14.91-11.37 6.3-2.78 13.38-4.15 21.31-4.15 7.93 0 15.17 1.38 21.46 4.15 6.3 2.78 11.24 6.55 14.84 11.32 3.59 4.77 5.4 10.2 5.4 16.31 0 6.11-1.84 11.32-5.48 16.14-3.64 4.82-8.62 8.62-14.91 11.37-6.3 2.78-13.38 4.15-21.31 4.15m0-14.55c6.27 0 11.37-1.76 15.32-5.28 3.39-3.03 5.23-7.32 5.23-11.85 0-5.07-1.94-9.2-5.79-12.39-3.85-3.21-8.77-4.82-14.76-4.82s-10.91 1.61-14.76 4.82c-3.08 2.55-4.92 5.71-5.56 9.46-1.07 6.42 1.86 13.03 7.32 16.59 3.57 2.32 7.9 3.47 13 3.47zM276.27 307.178c-8.03 0-15.17-1.38-21.46-4.1-6.42-2.8-11.45-6.68-15.06-11.62-3.39-4.64-5.17-10.22-5.17-15.96s1.84-11.45 5.48-16.24c3.65-4.82 8.62-8.62 14.91-11.37 6.3-2.78 13.38-4.15 21.31-4.15 7.93 0 15.17 1.38 21.46 4.15 6.3 2.78 11.24 6.55 14.84 11.32 3.59 4.77 5.4 10.2 5.4 16.31 0 6.11-1.84 11.32-5.48 16.14-3.65 4.82-8.62 8.62-14.91 11.37-6.3 2.78-13.41 4.15-21.31 4.15m0-14.55c5.1 0 9.43-1.17 13-3.49 5.43-3.57 8.36-10.17 7.32-16.57-.61-3.75-2.47-6.91-5.56-9.48-3.85-3.21-8.77-4.82-14.76-4.82s-10.91 1.61-14.76 4.82c-3.85 3.19-5.76 7.32-5.79 12.39 0 4.54 1.84 8.82 5.23 11.85 3.93 3.54 9.02 5.3 15.32 5.3zM348.07 220.289h-21v85.47h21v-85.47zM392.89 307.181c-6.91 0-13.03-1.35-18.33-4.05-5.33-2.7-9.51-6.42-12.57-11.19-3.03-4.77-4.56-10.2-4.56-16.31 0-6.11 1.63-11.45 4.87-16.24 3.24-4.82 7.62-8.62 13.15-11.45s11.75-4.23 18.63-4.23c5.38 0 10.27.97 14.68 2.88 2.6 1.12 6.47 2.96 8.05 4.03 2.17 1.48 1.81.2 1.58-1.35l-.69-4.74h20.09v61.2h-20.24l1.71-7.44c.13-.74-.43-1.15-1.63.36-4.44 5.53-13.56 8.54-24.75 8.54m6.25-14.55c5.2 0 9.61-1.22 13.2-3.65 5.25-3.54 8.08-9.92 7.14-16.19-.59-3.87-2.45-7.11-5.58-9.71-3.85-3.21-8.77-4.82-14.76-4.82s-10.91 1.61-14.76 4.82c-3.14 2.6-5 5.84-5.58 9.69-.94 6.27 1.89 12.67 7.14 16.21 3.59 2.45 7.98 3.65 13.2 3.65z" fill="currentColor"/></svg>