<?xml version="1.0" encoding="UTF-8"?>
<svg version="1.1" viewBox="0 0 960 540" width="2000" height="2000" xmlns="http://www.w3.org/2000/svg">
<g transform="translate(447.1 294.06)">
<path d="m93.3-125.6c40.4 26.5 94.8 36.7 124.4 68.8s34.3 86.2 14.2 127.2c-20.2 41-65.2 69.1-108 78.3-42.8 9.3-83.3-0.2-119.8-5.9-36.4-5.6-68.8-7.5-91.6-23.2-22.8-15.8-36.1-45.4-54.4-78.9-18.2-33.4-41.3-70.6-35.5-101.3 5.9-30.8 40.8-55.1 75.2-83.5 34.4-28.5 68.3-61.2 98.5-56.1s56.6 48 97 74.6" fill="fillCurrent"/>
</g>
</svg>
