<?xml version="1.0" encoding="UTF-8"?>
<svg version="1.1" viewBox="0 0 960 540" width="2000" height="2000" xmlns="http://www.w3.org/2000/svg">
<g transform="translate(444.28 306.59)">
<path d="m123.4-177.2c34.9 32.6 60.4 70.9 81 115.3 20.7 44.4 36.5 94.9 14.9 124.4-21.7 29.5-80.8 38.1-123.6 47.7s-69.2 20.2-103.4 30.9c-34.2 10.6-76.2 21.3-100.3 5.6-24-15.6-30.3-57.7-38.3-96-8.1-38.2-17.9-72.7-7.2-99 10.6-26.3 41.8-44.4 70.8-79s55.9-85.6 91.4-97.6c35.6-12 79.9 15 114.7 47.7" fill="fillCurrent"/>
</g>
</svg>
