<?xml version="1.0" encoding="UTF-8"?>
<svg width="800px" height="800px" fill="#000000" viewBox="0 0 32 32" xmlns="http://www.w3.org/2000/svg">
<path d="m18.036 0.131c-8.765-1.12-16.781 5.067-17.905 13.833-1.12 8.765 5.067 16.781 13.833 17.905 8.765 1.12 16.781-5.067 17.9-13.833 1.125-8.765-5.061-16.781-13.828-17.905zm3.292 9.984c-0.297 0-0.579 0.12-0.787 0.333l-5.937 5.932-0.411-0.407-0.855-0.859c5.849-5.833 6.907-5.891 7.989-5zm-6.479 6.478 5.916-5.921c0.328-0.344 0.875-0.339 1.204 5e-3 0.323 0.349 0.291 0.896-0.073 1.197l-6.265 5.5zm0.438 0.928-1.469 0.317c-0.031 5e-3 -0.072-0.011-0.088-0.047-0.016-0.032-0.011-0.068 0.016-0.095l0.859-0.859zm-3.74-0.614 1.568-1.563 1.172 1.172-2.641 0.567c-0.047 0.011-0.093-9e-3 -0.115-0.052-0.025-0.041-0.015-0.093 0.016-0.124zm-4.859 8.077c-0.057-5e-3 -0.1-0.057-0.095-0.109 5e-3 -0.025 0.016-0.047 0.032-0.063h5e-3l1.26-1.26 1.631 1.631zm3.233-1.677c-0.124 0.068-0.187 0.209-0.156 0.344l0.271 1.152c0.043 0.167-0.161 0.28-0.281 0.156h-5e-3l-1.635-1.636 5.016-5.011 2.427-0.525 1.161 1.167c-1.672 1.468-3.959 2.932-6.797 4.353zm7.038-4.567-1.12-1.12 6.265-5.5c0.057-0.052 0.109-0.109 0.156-0.167-0.192 1.792-2.703 4.323-5.301 6.787zm4.88-8.615h-5e-3c-2.183-2.193 0.901-5.563 3.276-3.584l-2.145 2.152c-0.063 0.061-0.063 0.167 0 0.228l1.661 1.663c-0.932 0.463-2.052 0.276-2.787-0.459zm3.432 0c-0.109 0.109-0.229 0.208-0.359 0.291l-1.609-1.609 2.041-2.047c0.885 0.964 0.849 2.443-0.073 3.365zm-0.131-2.057c-0.067 0.047-0.093 0.129-0.072 0.208 0.099 0.197 0.072 0.432-0.068 0.599-0.068 0.084-0.052 0.199 0.031 0.265 0.032 0.021 0.068 0.037 0.109 0.037 0.057 0 0.111-0.021 0.141-0.063 0.235-0.281 0.281-0.677 0.12-1.005-0.063-0.083-0.177-0.104-0.261-0.041z"/>
</svg>
